PathFileType	4	(X/Y/Z)	7_2_89_p0_0-161.trc
DataRate	CameraRate	NumFrames	NumMarkers	Units	OrigDataRate	OrigDataStartFrame	OrigNumFrames
56.0	56.0	5	27	m	56.0	101	162
Frame#	Time	RHip			RKnee			RAnkle			RBigToe			RSmallToe			RHeel			LHip			LKnee			LAnkle			LBigToe			LSmallToe			LHeel			Neck			Head			Nose			RShoulder			RElbow			RWrist			RThumb			RIndex			RPinky			LShoulder			LElbow			LWrist			LThumb			LIndex			LPinky			
		X1	Y1	Z1	X2	Y2	Z2	X3	Y3	Z3	X4	Y4	Z4	X5	Y5	Z5	X6	Y6	Z6	X7	Y7	Z7	X8	Y8	Z8	X9	Y9	Z9	X10	Y10	Z10	X11	Y11	Z11	X12	Y12	Z12	X13	Y13	Z13	X14	Y14	Z14	X15	Y15	Z15	X16	Y16	Z16	X17	Y17	Z17	X18	Y18	Z18	X19	Y19	Z19	X20	Y20	Z20	X21	Y21	Z21	X22	Y22	Z22	X23	Y23	Z23	X24	Y24	Z24	X25	Y25	Z25	X26	Y26	Z26	X27	Y27	Z27	
101	1.8035714285714286	0.3209236701246994	0.3434446360519639	1.235807078380138	0.3183046138069814	0.2997473257994649	1.6032327886886428	0.2870202693158934	0.29628115179775305	2.0071591963964557	0.2581017807439974	0.10106968312213638	1.9937347640130636	0.3163096467157246	0.13713861953240758	2.0084610330769412	0.27206695304418443	0.3514181068064452	2.1041496151839816	0.0898291851820759	0.3617281018577209	1.2394068249696428	0.09535109180641746	0.3141454480745668	1.604458866210764	0.1333743721867565	0.33919616729846197	2.0473634131548626	0.11064821641792136	0.11179390381890333	2.0248783126986583	0.05457083624380625	0.15886735451368564	2.008860385458579	0.1399783214940522	0.3625713099388746	2.096029743868025	0.2096026123388997	0.41570071940933667	0.6144042755456447	0.229797386776252	0.43289891145061626	0.35300176749171985	0.2044673659802266	0.33034770305242017	0.49671580576416297	0.38045750325791244	0.38720817883578196	0.7130934915996145	0.4635646969032885	0.33422566663713515	0.9618932688315457	0.4508111607582881	0.22199048448235348	1.1866640030908975	0.3888744770951075	0.160876352525556	1.2951480820732224	0.3953705451820637	0.13675386992637373	1.284119942985852	0.4475320876554195	0.20582413649530065	1.3118605276574575	0.03618685328392238	0.40504108935280525	0.7044096023853971	-0.009257937596126142	0.4118793662247083	0.9754006770634546	-0.035266461796623044	0.29545023878480076	1.2158975886193029	0.02971038478130868	0.24427249749945149	1.292035775478983	0.009117056230048774	0.21357967402412148	1.2895400183412786	-0.04253930945752145	0.28382664901797217	1.32818970397309
102	1.8214285714285714	0.3217640060195665	0.34402130977325057	1.2402755177303526	0.31842189053015546	0.29990898534832205	1.6030181790880995	0.2869977033969587	0.2962093517736807	2.006851688003021	0.25311250035416866	0.09707976979624748	1.9894297896459543	0.31542332585958066	0.13704295410613124	2.004067971931994	0.2717688822675001	0.35078533967429315	2.1017646764050357	0.09048267400074826	0.36095706286448326	1.2477609582543643	0.09454362942075376	0.3137404836859947	1.609286680458109	0.13342452816584643	0.3393054055168123	2.0475724655304814	0.11052881295341643	0.11178271595597146	2.024676419240493	0.05347724651412724	0.1589978821094845	2.0132284544106116	0.1399857328544848	0.3624511657267372	2.0959154162512714	0.20965924017417326	0.41579703489327585	0.6143839753760807	0.22981641117430537	0.4330350254277362	0.35310413567112425	0.20439083948494516	0.3302769754731726	0.4968984766200472	0.380217624721351	0.38656615240072095	0.7168525016102463	0.46362077473745034	0.33429728467172104	0.9618666378956839	0.4507860207952462	0.22204983701595682	1.1863583069465093	0.38583688789175746	0.1513335331246861	1.2877622837099016	0.3956755358978969	0.13677620755483305	1.281671889326637	0.4474701627731882	0.20505627027738704	1.3107833568901186	0.03614054910663591	0.4051771346478307	0.7045904855513405	-0.01323853753474018	0.40835480583619255	0.9743850737624843	-0.03482765941898643	0.2942774042460042	1.2191664147159431	0.03803066457858284	0.23555153251925479	1.2879488130471772	0.009743475552404237	0.2136437374466512	1.2886119467377322	-0.04214303011118732	0.2823642629805419	1.3312997138911902
103	1.8392857142857142	0.3211054153188011	0.3434448949941052	1.2358829869884453	0.3219204567413933	0.286191286527827	1.5944948784159425	0.2910091382213283	0.3073169166263261	2.0150857271906366	0.24997480546013914	0.0885918903598058	1.9834408852822152	0.31227252714780024	0.12833252304627105	1.9981776655139172	0.2717885191017572	0.35130459703608613	2.103656588737173	0.08991407688992334	0.36067395095160315	1.2511988458928134	0.09457591247369009	0.3138179710451587	1.6092346958276647	0.13344852153442474	0.33933418448174174	2.0476272476112745	0.11047607903024113	0.11188190676317207	2.0253506487443453	0.05712816014909979	0.1691311290504878	2.016878140781966	0.13995624392447395	0.36275618776436847	2.096366129453068	0.20966187200817726	0.41568173071329056	0.6140941067525887	0.22646948708328044	0.42315632837745726	0.35174999470362833	0.20442152642367772	0.33078619420467265	0.49398708377298806	0.3797512756497358	0.38627136740929957	0.7131452221131521	0.4631874617076892	0.33267997831372753	0.9614536759690394	0.44763717672038544	0.23415507455995088	1.1919739296183574	0.381992031854186	0.163266647664361	1.2972527812171948	0.39245794869473866	0.1281768344287062	1.2845253707921669	0.4422041082098414	0.1906442930291334	1.3032551426916963	0.035943033165613	0.404641787589536	0.7078178187276838	-0.013754363061707978	0.407853150899436	0.9781233990196705	-0.03081798457757264	0.2964544406292363	1.2196195062548512	0.03756336230543511	0.23514213852923418	1.2843901108157285	0.01357258888406353	0.2145660268206656	1.2917119366363439	-0.04174741344609895	0.2827695163333202	1.3313584395831946
104	1.8571428571428572	0.32182885562261493	0.3440854268008136	1.2406294795921187	0.321886757684587	0.2861166071192854	1.5943424713107825	0.2866850786232407	0.32196284182912227	2.0265455840583977	0.24990319861312535	0.08835657613318845	1.983538886739389	0.313089149420236	0.12907280838619037	2.0018334130535185	0.2713165618169026	0.35113036095543065	2.103475709446799	0.08988163320737651	0.36057534110492495	1.251200295146036	0.09454253950902074	0.3139086417449499	1.6091804648446322	0.13394829927812563	0.33719245709407974	2.0508853623547934	0.1146928210535285	0.09990557788671363	2.015583170551255	0.056209382471074036	0.16904810097633993	2.0211259710422915	0.14055003090860194	0.3611360694877298	2.1003547110315415	0.20969020222712878	0.41573893023390074	0.6141224354388468	0.22644806490435102	0.42308545398652586	0.3517446671693998	0.20432638769936334	0.330230606243581	0.49693763192098384	0.3802682517955761	0.38650699963510765	0.7169458220123859	0.46380849262028545	0.33258555481606145	0.964940535358922	0.4475848014472387	0.23434968713304133	1.191872714703626	0.3825513999982194	0.16291876504861597	1.2942567768023863	0.39299539668878986	0.1281372915920518	1.2812677862480535	0.44329212866262585	0.20390090936729402	1.3101271906964445	0.036253549218181906	0.40501231026574996	0.7117516244341237	-0.013609617066084323	0.4081623327524791	0.974445337647156	-0.030757252348297296	0.29643196809851735	1.2196132170283687	0.040756972518311015	0.2455040329578713	1.292726962354445	0.013761333383411404	0.214610034817249	1.2913298067150822	-0.041519686064823515	0.28279161345907944	1.331484841797704
105	1.875	0.3217363469019379	0.343994672427553	1.2404819188017855	0.3174123352379119	0.28342885367836607	1.592894896679268	0.2867130485907022	0.3220808484941331	2.0266421376466424	0.2531747662126426	0.09697986281426813	1.9905267183176891	0.31530884458049374	0.13633053200099637	2.00436986166886	0.2713947858298347	0.35132519871243506	2.1038809890845127	0.08988162443389454	0.36062133849130945	1.2512854501713109	0.0945708852673712	0.3138891038312084	1.6092312232581103	0.1334646031547188	0.3393303897012206	2.0475915192332557	0.11398499425346194	0.0999667416756084	2.019203940604286	0.05630161506555237	0.16904667302883425	2.0211262244067116	0.14018077229089557	0.36318812956315466	2.096872542688325	0.2097263664621661	0.4156852838218889	0.6139252625864816	0.22642083990608344	0.4229869254005119	0.3518404670213418	0.20432696306741327	0.3302240379226223	0.4969815587413909	0.38020411036699986	0.3864239155491432	0.7172027345747177	0.4638089700811493	0.33284310298635034	0.96524011216724	0.4476268584397002	0.23440614702913992	1.19170431673451	0.38273361679161483	0.16258145600038998	1.2948781534680145	0.3925299014901553	0.12812335511267042	1.2846110268180275	0.44739790909232946	0.2051381831184135	1.3106549433414558	0.03625927633166479	0.40503826913472396	0.7118304969612285	-0.013524466044512726	0.40828907186908314	0.9743798128622181	-0.03458849244939735	0.2942042716907461	1.2190974478031447	0.038180808551470664	0.23565460595896742	1.2880376683995236	0.01692523447374135	0.2163640964529405	1.2923167669215767	-0.041454003248501535	0.28275337508550774	1.3313044247295258
